# xmcd
#
# Track frame offsets:
#	150
#	24771
#	43790
#	65170
#	86750
#	107370
#	121631
#	143131
#	159270
#	176571
#	193190
#	209578
#	230979
#	252937
#	274413
#	295686
#	316667
#	334110
#
# Disc length: 4728 seconds
#
# Revision: 0
# Processed by: cddbd v1.4PL0 Copyright (c) Steve Scherf et al.
# Submitted via: EasyCDDAExtractor 4.6.9.1
#
DISCID=05127612
DTITLE=柯以敏 - 心歌
DYEAR=2002
DGENRE=POP
TTITLE0=心歌
TTITLE1=是不是爱
TTITLE2=我不清楚
TTITLE3=好不好
TTITLE4=睡吧
TTITLE5=诺言
TTITLE6=雾
TTITLE7=Goodbye My Love
TTITLE8=云河
TTITLE9=没有多余的眼泪为你流
TTITLE10=一笔勾销
TTITLE11=美丽
TTITLE12=爱我
TTITLE13=河流
TTITLE14=拥抱我
TTITLE15=两难
TTITLE16=想你想疯了
TTITLE17=爱你胜过我自己
EXTD=
EXTT0=
EXTT1=
EXTT2=
EXTT3=
EXTT4=
EXTT5=
EXTT6=
EXTT7=
EXTT8=
EXTT9=
EXTT10=
EXTT11=
EXTT12=
EXTT13=
EXTT14=
EXTT15=
EXTT16=
EXTT17=
PLAYORDER=
